<mxfile host="app.diagrams.net" modified="2023-12-12T04:11:53.226Z" agent="Mozilla/5.0 (X11; Linux x86_64) AppleWebKit/537.36 (KHTML, like Gecko) Chrome/76.0.3809.132 Safari/537.36" version="22.1.7" etag="1gdSLpyggv1FI6WWVJe8" type="github">
  <diagram name="第 1 页" id="_CK6q6RtLin7N6FVopZ9">
    <mxGraphModel>
      <root>
        <mxCell id="0" />
        <mxCell id="1" parent="0" />
      </root>
    </mxGraphModel>
  </diagram>
</mxfile>
